<svg xmlns="http://www.w3.org/2000/svg" viewBox="0 0 64 64" id="sneaker"><g data-name="Layer 32"><path fill="#c2c3c5" d="M62,38.49a5.172,5.172,0,0,1-.21,1.47A103.255,103.255,0,0,1,41.8,41.92a64.707,64.707,0,0,1-17.28-2.36l-6.67-1.85a21.537,21.537,0,0,0-5.81-.79,21.822,21.822,0,0,0-5.96.83l-3.01.86a41.586,41.586,0,0,1,1.58-9.46L5,27.92v-.37a8.731,8.731,0,0,1,1.46-4.83,1.824,1.824,0,0,1,3.07.08,8.592,8.592,0,0,0,3.09,3.02,8.5,8.5,0,0,0,4.18,1.1,9.3,9.3,0,0,0,4.17-.99L25,23.92l-2.36-2.36A2.2,2.2,0,0,1,22,20.01a2.16,2.16,0,0,1,.88-1.75L26,15.92l3.62,4.13a38.88,38.88,0,0,0,7.65,6.72A38.754,38.754,0,0,0,54.22,33l3.24.38A5.144,5.144,0,0,1,62,38.49Z"></path><path fill="#dcdddf" d="M3.151,37.587,6.08,36.75a21.822,21.822,0,0,1,5.96-.83,21.537,21.537,0,0,1,5.81.79l6.67,1.85A64.707,64.707,0,0,0,41.8,40.92a103.255,103.255,0,0,0,19.99-1.96,5.012,5.012,0,0,0,.17-.9,5.093,5.093,0,0,0-4.5-4.679L54.22,33a38.754,38.754,0,0,1-16.95-6.23,38.88,38.88,0,0,1-7.65-6.72L26,15.92l-3.12,2.34A2.16,2.16,0,0,0,22,20.01a2.2,2.2,0,0,0,.64,1.55L25,23.92l-4.03,2.01a9.3,9.3,0,0,1-4.17.99,8.5,8.5,0,0,1-4.18-1.1A8.592,8.592,0,0,1,9.53,22.8a1.824,1.824,0,0,0-3.07-.08A8.731,8.731,0,0,0,5,27.55v.37l-.35,1.23A41.523,41.523,0,0,0,3.151,37.587Z"></path><path fill="#e16c7b" d="M61.79,39.96a5.169,5.169,0,0,1-.52,1.18,9.715,9.715,0,0,1-2.81,3,9.879,9.879,0,0,1-3.79,1.59,128.587,128.587,0,0,1-23.49,2.19c-8.85.01-20.13.03-24.33.08a5.576,5.576,0,0,1-3.18-.97l-.33-.22a3.077,3.077,0,0,1-1.37-2.56A2.966,2.966,0,0,1,2,43.83a9.081,9.081,0,0,1,.74-2.39L3,40.92c0-.77.02-1.54.07-2.31l3.01-.86a21.822,21.822,0,0,1,5.96-.83,21.537,21.537,0,0,1,5.81.79l6.67,1.85A64.707,64.707,0,0,0,41.8,41.92,103.255,103.255,0,0,0,61.79,39.96Z"></path><path fill="#db4254" d="M3.34,46.81l.33.22A5.576,5.576,0,0,0,6.85,48c4.2-.05,15.48-.07,24.33-.08a128.587,128.587,0,0,0,23.49-2.19,9.879,9.879,0,0,0,3.79-1.59,9.715,9.715,0,0,0,2.81-3c.018-.03.031-.063.048-.093A103.248,103.248,0,0,1,41.8,42.92a64.707,64.707,0,0,1-17.28-2.36l-6.67-1.85a21.537,21.537,0,0,0-5.81-.79,21.822,21.822,0,0,0-5.96.83l-3.01.86c0,.023-.022.039-.032.059C3.025,40.086,3,40.5,3,40.92l-.26.52A9.081,9.081,0,0,0,2,43.83a2.966,2.966,0,0,0-.03.42A3.077,3.077,0,0,0,3.34,46.81Z"></path><path fill="#9b3041" d="M21.109,43.58A3.737,3.737,0,0,0,18,41.916H13.1a51.5,51.5,0,0,1-10.1-1v0l-.26.52A9.081,9.081,0,0,0,2,43.83a2.966,2.966,0,0,0-.03.42,3.077,3.077,0,0,0,1.37,2.56l.33.22A5.576,5.576,0,0,0,6.85,48c3.116-.037,10.131-.058,17.159-.07L24,47.916Z"></path><path fill="#c6414d" d="M17,42.916H12.1A51.462,51.462,0,0,1,2.5,42,9,9,0,0,0,2,43.83a2.966,2.966,0,0,0-.03.42,3.077,3.077,0,0,0,1.37,2.56l.33.22A5.576,5.576,0,0,0,6.85,48c2.87-.034,9.047-.054,15.5-.067L20.109,44.58A3.737,3.737,0,0,0,17,42.916Z"></path><path fill="#e16c7b" d="M16.58,30.916A19.741,19.741,0,0,0,28.192,27.14l4.92-3.578,0,0c-.235-.207-.457-.43-.686-.643H29.236a9.468,9.468,0,0,0-4.236,1h0l0,0-4.03,2.01a9.3,9.3,0,0,1-4.17.99,8.5,8.5,0,0,1-4.18-1.1A8.592,8.592,0,0,1,9.53,22.8a1.824,1.824,0,0,0-3.07-.08A8.731,8.731,0,0,0,5,27.55v.366l4.648,1.743A19.751,19.751,0,0,0,16.58,30.916Z"></path><path fill="#9a9b9f" d="M24.141,35.237l.01,0a60.455,60.455,0,0,0,17.8,2.676c4.707,0,9.473-.237,14.164-.706a4.323,4.323,0,0,0,3.656-2.938,5.145,5.145,0,0,0-1.839-.79l-.008.027a2.325,2.325,0,0,1-2.008,1.711c-4.625.462-9.324.7-13.965.7a58.432,58.432,0,0,1-17.211-2.588l-1.746-.537a14.616,14.616,0,0,0-1.811-2.419,19.76,19.76,0,0,1-2.351.4l.522.54a12.474,12.474,0,0,1,3.6,7.812l1.571.436c.162.045.326.083.488.127l-.028-.329A14.45,14.45,0,0,0,24.141,35.237Z"></path><path fill="#c6414d" d="M16.8 26.92a8.5 8.5 0 01-4.18-1.1A8.592 8.592 0 019.53 22.8a1.824 1.824 0 00-3.07-.08 8.729 8.729 0 00-1.3 3.256l4.487 1.683A19.743 19.743 0 0028.192 25.14l3.058-2.224H29.236a9.468 9.468 0 00-4.236 1h0l0 0-4.03 2.01A9.3 9.3 0 0116.8 26.92zM33.707 32.623L38.68 27.65c-.473-.287-.948-.573-1.41-.88-.107-.072-.207-.152-.313-.225l-4.664 4.664zM38.707 33.623l3.9-3.9q-.962-.439-1.9-.931l-3.413 3.414zM43.707 34.623l3.219-3.218q-1.058-.339-2.092-.737l-2.541 2.541z"></path></g></svg>